<?xml version="1.0" encoding="UTF-8" standalone="no"?>
<svg
   xmlns:dc="http://purl.org/dc/elements/1.1/"
   xmlns:cc="http://creativecommons.org/ns#"
   xmlns:rdf="http://www.w3.org/1999/02/22-rdf-syntax-ns#"
   xmlns:svg="http://www.w3.org/2000/svg"
   xmlns="http://www.w3.org/2000/svg"
   xmlns:xlink="http://www.w3.org/1999/xlink"
   id="svg8"
   version="1.1"
   viewBox="0 0 135.46666 135.46667"
   height="512"
   width="512">
  <defs
     id="defs2">
    <clipPath
       id="clipPath4648"
       clipPathUnits="userSpaceOnUse">
      <use
         height="100%"
         width="100%"
         id="use4650"
         xlink:href="#g4644"
         y="0"
         x="0" />
    </clipPath>
  </defs>
  <metadata
     id="metadata5">
    <rdf:RDF>
      <cc:Work
         rdf:about="">
        <dc:format>image/svg+xml</dc:format>
        <dc:type
           rdf:resource="http://purl.org/dc/dcmitype/StillImage" />
        <dc:title></dc:title>
      </cc:Work>
    </rdf:RDF>
  </metadata>
  <g
     transform="translate(0,-161.53332)"
     id="layer1">
    <g
       transform="matrix(1.9459184,0,0,1.9459184,-66.832567,-202.07103)"
       clip-path="url(#clipPath4648)"
       id="g4646">
      <g
         id="g4644">
        <rect
           style="fill:#3a2c53;fill-opacity:0.82527882;fill-rule:evenodd;stroke:none;stroke-width:0.17520179px;stroke-linecap:butt;stroke-linejoin:miter;stroke-opacity:1"
           id="rect4612"
           width="69.343864"
           height="69.343864"
           x="34.480968"
           y="187.12682"
           ry="3.9675555" />
        <rect
           ry="3.9519966"
           y="186.85487"
           x="34.616936"
           height="69.07193"
           width="69.07193"
           id="rect4610"
           style="fill:#673ab7;fill-opacity:1;fill-rule:evenodd;stroke:none;stroke-width:0.17451474px;stroke-linecap:butt;stroke-linejoin:miter;stroke-opacity:1" />
        <path
           style="fill:#cdcdcd;fill-opacity:1;fill-rule:evenodd;stroke:none;stroke-width:4.23836613;stroke-linecap:butt;stroke-linejoin:miter;stroke-miterlimit:4;stroke-dasharray:none;stroke-opacity:0.3903346"
           d="m 63.726625,208.12489 c -0.645787,-7.40739 4.834633,-13.9361 12.241882,-14.58259 7.407358,-0.64732 13.93614,4.83387 14.583123,12.24109 0.646775,7.40712 -4.832954,13.93637 -12.240119,14.58378 -7.407257,0.6473 -13.936797,-4.83236 -14.58461,-12.2393 -9.2e-5,-0.002 -1.77e-4,-0.003 -2.76e-4,-0.003 z"
           id="path4603-5" />
        <path
           style="fill:#cdcdcd;fill-opacity:1;fill-rule:evenodd;stroke:none;stroke-width:3.1544044;stroke-linecap:butt;stroke-linejoin:miter;stroke-miterlimit:4;stroke-dasharray:none;stroke-opacity:0.3903346"
           d="m 41.221998,210.53429 c -0.480624,-5.51295 3.598178,-10.37194 9.111022,-10.8531 5.512926,-0.48176 10.371978,3.59762 10.85349,9.11043 0.481362,5.51276 -3.596923,10.37213 -9.10971,10.85398 -5.512852,0.48176 -10.37246,-3.59648 -10.854594,-9.10909 -7.3e-5,-0.002 -1.32e-4,-0.002 -2.08e-4,-0.002 z"
           id="path4603-5-3" />
        <rect
           ry="1.0924034"
           y="221.62891"
           x="49.353207"
           height="18.027054"
           width="3.1528664"
           id="rect4593"
           style="fill:#cdcdcd;fill-opacity:1;fill-rule:evenodd;stroke:none;stroke-width:0.03222733px;stroke-linecap:butt;stroke-linejoin:miter;stroke-opacity:1" />
        <rect
           style="fill:#cdcdcd;fill-opacity:1;fill-rule:evenodd;stroke:none;stroke-width:0.02608759px;stroke-linecap:butt;stroke-linejoin:miter;stroke-opacity:1"
           id="rect4507-7"
           width="15.817497"
           height="2.3545718"
           x="57.42691"
           y="243.39624"
           ry="0.14268233" />
        <path
           style="fill:#cdcdcd;fill-opacity:1;fill-rule:evenodd;stroke:none;stroke-width:0.22163104px;stroke-linecap:butt;stroke-linejoin:miter;stroke-opacity:1"
           d="m 96.328703,242.29262 v -23.50349 c 0.01034,-0.78426 -0.707803,-1.1871 -1.432061,-0.8637 l -16.345853,6.9834 V 236.183 l 16.298542,7.05243 c 0.707036,0.26738 1.521353,-0.10247 1.479372,-0.94281 z"
           id="path4576" />
        <rect
           style="fill:#dfdfdf;fill-opacity:1;fill-rule:evenodd;stroke:none;stroke-width:0.11759388px;stroke-linecap:butt;stroke-linejoin:miter;stroke-opacity:1"
           id="rect4507"
           width="27.571861"
           height="27.446373"
           x="51.700588"
           y="216.86491"
           ry="1.6631954" />
        <path
           transform="matrix(0.13596836,0,0,0.13596836,34.345,186.85488)"
           id="rect4638"
           d="m 110.38086,322 v 58.29883 c 0,4.45097 3.58223,8.03515 8.0332,8.03515 h 7.11914 c 0.7321,0 1.43826,-0.10531 2.11133,-0.2871 v 22.29296 c 0,6.77666 5.45577,12.23243 12.23242,12.23243 h 29.88282 v 9.53711 c 0,0.58135 0.46747,1.04882 1.04882,1.04882 h 114.23438 c 0.58135,0 1.04883,-0.46747 1.04883,-1.04882 v -9.53711 h 32.10156 c 6.77665,0 12.23242,-5.45577 12.23242,-12.23243 v -45.25195 l 114.5625,49.57227 c 5.20001,1.96648 11.18962,-0.75475 10.88086,-6.93516 V 322 c -218.2239,49.03509 -175.43743,-77.35269 -345.48828,0 z"
           style="fill:#000000;fill-opacity:0.28252791;fill-rule:evenodd;stroke:none;stroke-width:0.23702081px;stroke-linecap:butt;stroke-linejoin:miter;stroke-opacity:1" />
      </g>
    </g>
  </g>
</svg>
